<?xml version="1.0" standalone="no"?>
<!DOCTYPE svg PUBLIC "-//W3C//DTD SVG 20010904//EN"
 "http://www.w3.org/TR/2001/REC-SVG-20010904/DTD/svg10.dtd">
<svg version="1.0" xmlns="http://www.w3.org/2000/svg"
 width="736.000000pt" height="736.000000pt" viewBox="0 0 736.000000 736.000000"
 preserveAspectRatio="xMidYMid meet">

<g transform="translate(0.000000,736.000000) scale(0.100000,-0.100000)"
fill="#000000" stroke="none">
<path d="M0 3680 l0 -3680 3680 0 3680 0 0 3680 0 3680 -3680 0 -3680 0 0
-3680z m4255 1717 c50 -8 108 -23 130 -34 91 -48 192 -187 230 -318 10 -33 30
-94 45 -135 31 -84 80 -228 115 -340 22 -68 119 -359 196 -585 16 -49 39 -119
51 -155 11 -36 24 -74 29 -85 15 -35 70 -189 78 -220 5 -16 15 -46 24 -65 9
-19 28 -75 42 -125 14 -49 30 -99 35 -110 4 -11 16 -47 25 -80 21 -74 73 -238
91 -285 30 -79 37 -181 30 -430 -8 -283 -17 -374 -41 -400 -10 -11 -49 -32
-89 -47 l-71 -28 -535 2 c-580 1 -782 11 -808 37 -23 23 -36 218 -36 571 -1
232 2 305 12 323 19 33 71 52 166 62 45 5 137 17 206 26 132 18 228 19 375 4
50 -6 122 -10 160 -10 39 -1 97 -6 130 -13 50 -11 63 -18 82 -46 18 -26 20
-37 12 -55 -18 -38 -104 -47 -550 -54 l-407 -7 -21 -25 c-16 -20 -20 -39 -21
-90 0 -36 4 -70 8 -76 8 -13 353 -24 757 -25 261 0 271 -1 293 -21 31 -30 30
-81 -3 -113 l-24 -25 -253 -1 c-344 0 -686 -7 -725 -14 -31 -6 -31 -6 -38 -78
-11 -116 -4 -160 25 -174 18 -8 181 -13 545 -18 626 -8 664 -5 682 66 3 13 8
135 10 271 6 304 8 292 -137 728 -100 300 -128 387 -212 665 -82 275 -250 767
-391 1150 -23 61 -65 138 -93 168 -69 74 -137 81 -731 73 -519 -7 -510 -6
-601 -73 -96 -71 -135 -145 -237 -448 -49 -146 -93 -260 -134 -345 -11 -25
-21 -49 -21 -53 0 -10 -55 -157 -137 -366 -35 -91 -77 -203 -93 -250 -34 -101
-59 -170 -95 -266 -14 -38 -30 -83 -34 -100 -11 -43 -98 -310 -120 -370 -51
-139 -61 -193 -81 -450 -15 -197 14 -369 66 -380 13 -3 36 -8 52 -11 50 -11
1235 -4 1249 8 16 13 18 190 3 218 -6 12 -35 27 -68 37 -48 14 -102 17 -357
18 -165 0 -380 -4 -479 -8 -199 -9 -225 -5 -249 45 -21 42 -12 62 39 87 43 22
46 22 556 20 378 -2 521 1 541 9 l29 12 -4 94 c-2 59 -8 99 -16 109 -13 15
-60 16 -495 12 -264 -3 -488 -3 -498 0 -9 3 -22 19 -28 36 -20 56 14 96 98
114 19 4 226 9 460 10 234 2 449 8 476 13 90 18 171 -37 186 -125 17 -106 1
-704 -22 -803 -6 -28 -19 -51 -32 -60 -18 -12 -115 -16 -572 -20 -302 -3 -642
-3 -755 1 -200 5 -206 6 -250 32 -86 52 -78 16 -86 383 -7 320 -6 331 15 409
12 44 29 103 36 130 7 28 46 133 85 235 94 242 138 365 149 420 20 94 95 312
230 665 53 140 64 164 111 255 33 65 150 394 150 423 0 21 105 254 142 316 21
34 38 67 38 71 0 4 12 21 28 37 22 25 42 32 117 46 134 25 142 25 650 21 304
-3 502 -9 560 -17z m-414 -522 c116 -22 182 -43 268 -87 138 -71 228 -150 289
-254 72 -124 74 -134 80 -307 4 -145 3 -163 -18 -220 -12 -34 -35 -81 -51
-105 -16 -24 -29 -45 -29 -48 0 -3 -6 -12 -12 -19 -7 -8 -26 -33 -43 -56 -82
-112 -197 -208 -276 -230 -56 -16 -227 -15 -304 0 -234 49 -395 245 -395 482
0 154 100 313 238 377 51 24 68 27 162 26 93 0 111 -3 155 -26 62 -32 140
-113 167 -175 17 -38 20 -60 15 -117 -7 -86 -25 -131 -69 -173 -72 -68 -225
-97 -282 -52 -36 28 -56 70 -56 118 0 79 31 98 51 31 14 -45 40 -73 85 -88 50
-16 119 19 144 74 42 91 12 203 -70 259 -38 26 -51 29 -114 29 -105 -1 -160
-31 -219 -120 -49 -72 -67 -136 -67 -230 0 -71 3 -90 22 -117 79 -113 147
-153 289 -168 186 -20 255 -3 362 91 55 49 121 171 137 256 7 36 11 116 9 191
-4 126 -5 131 -41 204 -85 171 -229 269 -457 310 -97 18 -111 18 -183 4 -43
-8 -92 -21 -108 -30 -16 -8 -35 -15 -43 -15 -19 0 -123 -73 -175 -123 -52 -50
-90 -104 -121 -172 -12 -27 -26 -58 -31 -67 -5 -9 -19 -54 -31 -100 -31 -118
-38 -316 -14 -400 21 -77 59 -152 91 -185 14 -14 36 -42 49 -63 47 -74 253
-189 378 -210 72 -13 177 -3 282 25 107 28 238 56 243 50 9 -8 -26 -32 -109
-74 -166 -84 -271 -106 -468 -98 -190 7 -201 12 -353 160 -120 117 -128 127
-178 231 -72 152 -90 229 -90 391 0 122 2 139 34 236 82 252 221 430 408 522
153 76 279 93 449 62z"/>
</g>
</svg>
