<?xml version="1.0" standalone="no"?>
<!DOCTYPE svg PUBLIC "-//W3C//DTD SVG 20010904//EN"
 "http://www.w3.org/TR/2001/REC-SVG-20010904/DTD/svg10.dtd">
<svg version="1.0" xmlns="http://www.w3.org/2000/svg"
 width="736.000000pt" height="736.000000pt" viewBox="0 0 736.000000 736.000000"
 preserveAspectRatio="xMidYMid meet">

<g transform="translate(0.000000,736.000000) scale(0.100000,-0.100000)"
fill="#000000" stroke="none">
<path d="M0 3680 l0 -3680 3680 0 3680 0 0 3680 0 3680 -3680 0 -3680 0 0
-3680z m3727 2230 c17 -6 35 -21 42 -33 37 -72 70 -122 80 -120 5 2 8 -3 6
-10 -3 -6 4 -28 15 -47 38 -65 117 -235 135 -289 14 -42 17 -85 16 -200 -1
-196 -4 -207 -110 -511 -79 -224 -90 -388 -37 -520 30 -74 86 -135 106 -117
12 10 12 9 2 -4 -10 -13 -7 -20 13 -39 l25 -23 0 29 c1 81 78 345 146 499 10
22 17 43 16 48 -1 4 3 7 8 7 6 0 26 24 45 54 19 30 40 58 46 61 6 4 8 14 5 22
-3 8 -2 12 3 9 13 -8 54 41 46 55 -5 7 -4 10 2 6 6 -4 52 34 103 84 91 89 108
102 236 185 35 23 60 45 56 49 -4 5 -2 5 4 2 7 -4 32 2 57 13 44 20 74 18 89
-4 14 -20 8 -65 -9 -75 -10 -6 -14 -11 -8 -11 5 0 -1 -7 -13 -16 -14 -9 -21
-22 -18 -31 3 -8 2 -12 -3 -9 -14 9 -83 -150 -76 -176 5 -17 4 -19 -4 -9 -17
25 -24 -53 -18 -178 7 -123 26 -233 53 -296 8 -21 24 -66 35 -99 20 -68 112
-220 124 -208 5 4 5 2 1 -5 -7 -13 13 -63 26 -63 4 0 8 -6 8 -13 0 -7 12 -26
28 -43 15 -17 32 -40 38 -50 6 -11 16 -19 22 -19 6 0 14 -4 19 -9 5 -5 3 -6
-4 -2 -20 11 -16 -1 26 -72 127 -220 164 -351 141 -506 -25 -165 -47 -226
-120 -337 -67 -101 -192 -236 -270 -289 -19 -14 -39 -28 -45 -32 -5 -5 -27
-21 -47 -37 -21 -15 -35 -30 -33 -33 2 -2 -12 -2 -31 0 -25 3 -39 11 -46 28
-16 34 6 61 119 148 147 111 287 267 265 292 -4 4 -2 4 4 1 31 -18 104 224
104 346 0 61 -31 178 -64 238 -100 187 -179 307 -198 301 -5 -1 -7 2 -3 8 8
12 -29 62 -39 52 -4 -3 -4 0 -1 9 3 8 -17 51 -46 99 -28 47 -65 119 -81 160
-17 41 -34 77 -39 78 -5 2 -7 7 -4 11 2 4 -4 43 -14 87 -27 111 -44 296 -37
381 4 39 3 73 -1 75 -4 3 -3 3 4 2 6 -2 18 16 26 39 8 23 18 50 22 61 8 18 7
18 -18 1 -15 -9 -25 -21 -22 -25 3 -5 0 -12 -6 -16 -8 -4 -9 -3 -5 4 16 27
-11 8 -85 -59 -44 -39 -79 -75 -79 -81 0 -5 5 -6 12 -2 7 4 8 3 4 -4 -4 -6
-13 -9 -20 -6 -7 3 -20 -5 -29 -18 -9 -13 -30 -39 -48 -58 -50 -56 -105 -141
-133 -207 -57 -135 -108 -322 -121 -439 l-7 -61 57 -64 c31 -35 68 -84 82
-109 15 -25 32 -52 39 -60 22 -26 63 -198 72 -300 13 -152 -18 -302 -96 -455
-20 -38 -35 -74 -34 -78 1 -5 -1 -6 -6 -3 -9 5 -52 -46 -52 -63 0 -5 -3 -11
-8 -13 -4 -1 -30 -29 -57 -62 -46 -54 -146 -131 -220 -169 -48 -24 -218 -50
-340 -51 -153 -1 -255 27 -390 108 -33 20 -65 34 -73 31 -7 -2 -11 -1 -8 4 8
12 -109 113 -119 103 -5 -4 -5 -2 -2 4 4 6 -12 35 -34 65 -51 67 -64 97 -89
204 -23 100 -27 264 -8 365 18 92 13 178 -9 197 -10 8 -12 12 -6 8 9 -4 11 3
6 27 -7 40 -52 169 -63 183 -5 6 -29 52 -54 103 -26 50 -49 92 -52 92 -3 0 -2
-5 2 -12 4 -7 3 -8 -4 -4 -6 4 -9 13 -6 20 3 7 -1 20 -9 27 -8 8 -40 38 -70
67 -43 41 -82 65 -177 107 -67 30 -123 55 -125 55 -2 0 11 -37 27 -82 26 -70
31 -98 32 -183 2 -145 -33 -367 -80 -519 -14 -44 -22 -86 -19 -95 3 -8 3 -12
-1 -8 -9 9 -68 -145 -84 -215 -29 -139 12 -308 98 -401 19 -20 28 -24 35 -15
6 9 7 8 4 -4 -9 -25 24 -47 89 -59 66 -13 94 -32 94 -64 0 -45 -36 -67 -85
-53 -16 4 -43 11 -60 14 -43 7 -85 37 -141 96 -27 29 -53 52 -57 50 -5 -1 -6
2 -3 7 3 5 -5 29 -19 53 -63 108 -86 257 -60 381 9 42 13 83 9 90 -4 6 -3 8 1
4 21 -19 125 315 151 483 21 138 30 335 15 326 -6 -4 -9 -2 -5 7 9 24 -47 160
-92 223 -44 62 -55 103 -31 121 30 24 57 20 144 -23 48 -24 92 -44 97 -44 4 0
36 -13 70 -29 104 -49 161 -74 169 -75 4 -1 45 -38 90 -84 78 -77 89 -94 165
-245 47 -94 88 -192 98 -233 l18 -71 55 57 c56 57 172 140 195 140 7 0 36 11
64 25 29 14 56 25 62 25 13 0 14 -1 -15 65 -100 225 -64 513 89 709 25 32 43
63 39 69 -3 6 -1 7 5 3 12 -7 59 50 54 66 -1 5 2 7 7 4 10 -6 107 117 135 172
9 18 14 38 10 44 -4 6 -3 8 3 5 17 -11 71 125 82 208 12 84 22 105 53 105 39
0 58 -19 58 -58 0 -94 -21 -168 -80 -287 -67 -132 -101 -185 -172 -264 -27
-29 -45 -58 -41 -64 3 -5 2 -7 -4 -4 -8 5 -73 -62 -73 -76 0 -3 -16 -29 -35
-57 -24 -36 -34 -59 -30 -74 5 -15 4 -17 -3 -7 -16 22 -42 -116 -42 -220 0
-93 24 -214 41 -203 5 3 6 -1 3 -9 -3 -8 4 -35 16 -59 l21 -45 80 -7 c44 -4
105 -16 135 -27 60 -23 168 -81 196 -106 9 -8 22 -12 29 -7 7 4 10 3 5 -4 -8
-13 73 -84 87 -75 6 4 7 1 3 -6 -5 -7 -1 -20 7 -29 22 -26 45 -108 58 -207 10
-81 9 -102 -10 -194 -12 -57 -26 -112 -32 -123 -5 -10 -7 -24 -3 -30 4 -6 3
-8 -3 -5 -6 4 -13 0 -17 -8 -16 -42 -95 -129 -154 -169 -52 -35 -81 -48 -132
-56 -90 -14 -158 -13 -232 5 -85 19 -124 40 -174 91 -33 34 -44 40 -55 31 -11
-10 -11 -9 -1 4 9 13 8 24 -9 58 -27 57 -42 144 -33 195 5 22 9 46 10 51 6 46
69 177 105 218 35 40 44 45 108 55 122 21 195 10 231 -33 7 -9 19 -14 27 -11
8 4 11 1 7 -5 -3 -6 3 -20 14 -32 35 -39 55 -91 59 -157 4 -60 2 -68 -28 -114
-34 -51 -80 -86 -114 -86 -13 0 -16 -3 -8 -8 7 -4 -16 -7 -50 -7 -102 2 -158
48 -127 104 12 23 49 28 81 11 24 -13 97 5 116 28 26 33 32 59 21 96 -6 19
-15 33 -19 30 -5 -3 -6 1 -3 9 3 8 -10 27 -31 46 -31 27 -43 31 -91 31 -61 0
-138 -35 -129 -58 3 -7 1 -11 -4 -8 -10 7 -35 -50 -57 -132 -15 -54 -15 -71
-4 -119 9 -41 15 -52 22 -42 7 10 8 9 4 -7 -7 -22 15 -59 36 -59 7 -1 12 -6
11 -12 -4 -18 49 -51 98 -62 51 -12 145 -13 210 -2 50 8 144 75 132 94 -3 5
-1 7 4 4 11 -7 50 38 75 88 30 60 51 183 43 264 -7 87 -24 153 -36 145 -5 -3
-6 1 -3 9 6 15 -22 31 -37 21 -5 -3 -8 -1 -7 5 8 29 -93 127 -120 116 -8 -3
-10 0 -6 7 5 8 2 9 -10 5 -10 -4 -15 -3 -11 3 6 9 -50 38 -119 60 -47 15 -219
7 -263 -12 -15 -7 -44 -24 -64 -39 -19 -15 -47 -31 -62 -34 -15 -4 -58 -37
-96 -74 -79 -77 -127 -169 -142 -276 -14 -101 12 -308 49 -380 25 -51 64 -95
76 -88 6 3 8 2 3 -2 -8 -9 20 -45 35 -45 5 0 22 -10 37 -21 17 -13 34 -18 42
-14 7 5 10 4 5 -3 -9 -15 100 -66 199 -92 55 -15 108 -21 170 -20 190 2 295
33 400 120 116 96 248 300 229 356 -4 13 -3 15 3 6 13 -17 33 70 40 168 9 140
-53 356 -119 413 -11 9 -18 17 -14 17 3 0 -2 9 -11 19 -9 11 -20 18 -25 15 -5
-3 -7 -1 -6 4 2 5 -52 64 -118 131 -141 142 -177 201 -199 329 -18 105 -6 287
25 377 39 111 58 175 53 175 -3 0 0 6 6 14 22 27 72 191 79 261 14 135 7 264
-18 332 -13 36 -27 60 -33 56 -6 -4 -7 -1 -2 7 10 16 -45 131 -58 123 -6 -3
-7 -1 -3 6 4 6 -3 26 -16 43 l-23 32 -6 -40 c-16 -90 -162 -398 -231 -486 -16
-21 -26 -38 -21 -38 4 0 0 -5 -10 -11 -9 -6 -15 -15 -11 -20 3 -5 1 -8 -4 -7
-5 2 -21 -12 -36 -30 -25 -28 -26 -35 -15 -50 13 -15 12 -16 -3 -3 -16 12 -22
9 -19 -11 0 -4 -7 -4 -17 -1 -9 3 -14 3 -10 -2 4 -4 -7 -19 -23 -32 -17 -14
-28 -32 -25 -39 3 -7 0 -11 -7 -8 -16 6 -60 -43 -52 -56 4 -6 -1 -7 -11 -3
-13 5 -16 3 -11 -10 3 -9 3 -16 -1 -15 -10 3 -51 -38 -92 -92 -19 -25 -38 -48
-43 -51 -4 -3 -5 -14 -1 -25 4 -13 3 -15 -3 -6 -12 16 -40 -22 -93 -125 -44
-87 -80 -221 -80 -301 0 -76 18 -186 42 -265 24 -76 20 -95 -25 -111 -19 -7
-29 -5 -40 6 -71 71 -105 387 -58 552 12 43 29 92 37 108 9 16 13 36 10 44 -3
8 -1 12 4 9 5 -3 21 18 36 47 15 29 49 81 76 116 27 34 46 68 42 74 -4 6 -3 8
3 5 14 -9 37 19 27 34 -4 7 -3 9 3 6 11 -7 239 232 237 250 -1 7 2 11 6 8 4
-2 25 18 46 46 21 27 49 62 60 77 37 47 75 122 68 134 -4 7 -3 8 5 4 16 -10
64 99 56 128 -4 14 -3 17 3 8 6 -9 18 8 39 60 38 90 44 123 44 241 1 98 4 110
29 120 8 3 15 6 16 6 1 1 15 -4 31 -9z m773 -1381 c0 -14 -8 -41 -17 -60 -31
-61 -14 -288 31 -417 8 -22 26 -95 41 -163 14 -68 33 -144 40 -169 48 -150 95
-316 108 -385 46 -237 21 -427 -76 -594 -21 -34 -34 -68 -31 -74 4 -7 4 -9 0
-5 -5 4 -35 -27 -68 -68 -33 -41 -84 -96 -114 -121 -29 -25 -51 -50 -48 -55 3
-5 2 -7 -3 -6 -12 4 -124 -62 -119 -70 2 -4 -6 -8 -18 -8 -12 -1 -52 -16 -88
-33 -37 -17 -72 -31 -78 -31 -6 0 -9 -3 -7 -8 3 -4 -5 -8 -16 -8 -12 -1 -67
-14 -122 -29 -88 -23 -119 -27 -265 -28 -124 -1 -181 3 -230 15 -36 10 -111
26 -167 37 -57 11 -117 28 -134 36 -17 9 -37 14 -45 11 -8 -3 -13 -2 -10 3 3
5 -23 18 -58 30 -108 36 -294 124 -340 161 -50 39 -114 139 -140 216 -9 28
-18 85 -18 125 -3 106 20 444 34 509 32 155 -7 483 -67 560 -23 28 -26 53 -10
76 39 60 108 2 144 -119 52 -176 63 -362 33 -577 -6 -41 -16 -163 -22 -271
-11 -177 -11 -201 5 -255 25 -85 61 -140 119 -183 61 -44 191 -105 206 -96 6
4 9 1 8 -5 -2 -6 37 -26 87 -44 50 -18 99 -37 110 -43 11 -6 72 -21 135 -32
63 -12 143 -28 177 -36 79 -19 265 -19 365 0 66 12 125 31 250 77 16 5 26 13
24 16 -2 4 7 8 20 8 88 6 309 199 384 336 8 15 28 50 43 79 64 116 83 291 52
458 -9 44 -40 163 -70 263 -29 101 -65 235 -80 298 -14 63 -33 136 -41 163
-16 49 -35 151 -55 295 -9 64 -9 93 0 125 23 82 53 147 68 147 8 0 11 5 8 11
-4 6 9 0 29 -13 26 -17 36 -30 36 -49z m-592 -394 c-3 -3 -9 2 -12 12 -6 14
-5 15 5 6 7 -7 10 -15 7 -18z m393 -1248 c-10 -9 -11 -8 -5 6 3 10 9 15 12 12
3 -3 0 -11 -7 -18z"/>
</g>
</svg>
