<?xml version="1.0" standalone="no"?>
<!DOCTYPE svg PUBLIC "-//W3C//DTD SVG 20010904//EN"
 "http://www.w3.org/TR/2001/REC-SVG-20010904/DTD/svg10.dtd">
<svg version="1.0" xmlns="http://www.w3.org/2000/svg"
 width="415.000000pt" height="415.000000pt" viewBox="0 0 415.000000 415.000000"
 preserveAspectRatio="xMidYMid meet">
<metadata>
Created by potrace 1.16, written by Peter Selinger 2001-2019
</metadata>
<g transform="translate(0.000000,415.000000) scale(0.100000,-0.100000)"
fill="#000000" stroke="none">
<path d="M0 2075 l0 -2075 2075 0 2075 0 0 2075 0 2075 -2075 0 -2075 0 0
-2075z m2259 1039 c394 -58 698 -278 822 -597 60 -155 96 -397 86 -577 -11
-194 -51 -347 -136 -525 -145 -303 -374 -465 -766 -542 -142 -27 -474 -25
-622 5 -483 97 -708 315 -802 777 -40 195 -45 544 -11 690 20 85 114 263 184
349 193 237 498 392 846 429 93 10 303 6 399 -9z"/>
<path d="M1895 3000 c-71 -4 -84 -7 -60 -13 115 -31 212 -82 320 -167 41 -33
77 -60 81 -60 3 0 31 16 62 35 101 61 196 65 269 9 94 -72 104 -244 18 -300
-54 -35 -146 -34 -172 2 -7 10 -13 35 -13 57 0 29 7 45 29 68 16 16 37 29 45
29 18 0 21 -11 6 -26 -6 -6 -14 -25 -19 -42 -13 -44 14 -78 53 -68 48 12 76
49 76 101 0 93 -50 145 -139 145 -46 0 -66 -6 -103 -29 -57 -36 -68 -56 -68
-121 0 -120 105 -220 230 -220 68 0 109 19 153 71 93 108 82 251 -27 367 -83
88 -234 143 -449 162 -107 10 -145 10 -292 0z"/>
<path d="M1511 2890 c-145 -38 -270 -131 -361 -267 -49 -73 -64 -107 -37 -85
31 26 134 46 232 45 112 -1 206 -25 269 -68 l38 -26 33 30 c78 69 195 110 273
97 46 -7 138 -68 161 -108 43 -70 33 -177 -23 -251 -65 -86 -149 -99 -215 -33
-32 32 -36 42 -36 87 0 41 4 54 24 70 13 10 35 19 49 19 l25 0 -27 -25 c-57
-53 -17 -140 66 -140 99 0 144 149 71 236 -66 78 -202 80 -292 3 -67 -58 -69
-73 -22 -222 l41 -130 47 -16 c103 -35 211 -13 293 61 80 72 130 177 130 274
0 126 -117 299 -265 388 -129 78 -316 102 -474 61z"/>
<path d="M2783 2663 c0 -152 -44 -237 -154 -298 -48 -26 -64 -30 -139 -30 -47
0 -104 4 -126 8 -41 8 -42 8 -48 -26 -11 -59 -64 -153 -112 -197 -91 -84 -231
-126 -380 -113 l-71 6 -12 -48 c-16 -63 -34 -98 -78 -146 -79 -88 -192 -139
-306 -139 -164 0 -291 93 -318 233 -23 113 34 250 130 315 124 85 304 55 360
-61 24 -50 28 -131 7 -180 -19 -48 -71 -95 -117 -107 -104 -28 -194 74 -124
140 l25 23 0 -51 0 -52 51 0 c61 0 84 11 105 51 33 65 -7 157 -84 191 -41 18
-52 20 -90 9 -130 -35 -221 -182 -177 -287 37 -88 123 -137 242 -137 104 0
171 35 229 121 53 77 74 144 74 238 0 147 -60 265 -161 317 -84 43 -171 54
-262 35 -216 -47 -326 -176 -356 -418 -12 -90 1 -246 24 -289 20 -40 70 -79
140 -112 225 -105 516 -85 723 51 31 20 155 119 275 219 263 219 311 256 413
308 146 76 350 121 494 111 59 -4 60 -4 60 22 0 41 -28 140 -59 206 -34 73
-84 131 -139 162 l-40 22 1 -97z"/>
<path d="M2670 2220 c-160 -42 -277 -117 -525 -338 -257 -229 -349 -290 -533
-352 -187 -63 -342 -61 -543 4 -57 19 -105 33 -106 32 -1 -1 7 -36 18 -78 l21
-76 111 -56 c148 -74 216 -85 378 -61 216 31 425 120 605 256 50 37 158 130
240 205 82 75 176 155 209 177 124 84 265 127 423 127 l93 0 -7 78 c-3 42 -11
82 -16 87 -5 6 -72 11 -151 12 -114 2 -157 -1 -217 -17z"/>
<path d="M2860 1954 c-182 -27 -205 -41 -510 -320 -137 -126 -264 -217 -400
-288 -207 -107 -361 -146 -576 -146 -76 0 -134 -4 -134 -9 0 -15 80 -76 137
-105 92 -46 171 -59 333 -53 113 3 161 9 215 27 152 48 193 78 511 374 221
205 325 262 495 273 l86 6 17 76 c27 118 26 143 -5 151 -35 10 -138 18 -169
14z"/>
<path d="M2835 1581 c-134 -39 -198 -85 -426 -303 -191 -183 -247 -228 -346
-276 -40 -19 -73 -37 -73 -39 0 -9 221 8 301 23 276 52 482 193 602 414 28 51
77 177 77 197 0 9 -82 -1 -135 -16z"/>
</g>
</svg>
