<?xml version="1.0" standalone="no"?>
<!DOCTYPE svg PUBLIC "-//W3C//DTD SVG 20010904//EN"
 "http://www.w3.org/TR/2001/REC-SVG-20010904/DTD/svg10.dtd">
<svg version="1.0" xmlns="http://www.w3.org/2000/svg"
 width="719.000000pt" height="719.000000pt" viewBox="0 0 719.000000 719.000000"
 preserveAspectRatio="xMidYMid meet">
<metadata>
Created by potrace 1.16, written by Peter Selinger 2001-2019
</metadata>
<g transform="translate(0.000000,719.000000) scale(0.100000,-0.100000)"
fill="#000000" stroke="none">
<path d="M0 3595 l0 -3595 3595 0 3595 0 0 3595 0 3595 -3595 0 -3595 0 0
-3595z m4585 2250 c226 -24 305 -46 470 -132 74 -39 175 -107 220 -149 106
-97 178 -172 191 -196 8 -16 19 -28 24 -28 16 0 83 -109 143 -233 90 -186 128
-334 146 -569 14 -191 -10 -485 -49 -573 -4 -11 -21 -56 -36 -100 -15 -44 -44
-114 -64 -155 -21 -41 -41 -86 -45 -100 -13 -44 -59 -143 -114 -244 -34 -64
-53 -76 -89 -56 -38 22 -39 63 -6 146 15 37 32 88 40 113 7 25 26 84 43 131
43 124 55 171 98 385 57 287 -29 726 -192 985 -19 30 -41 69 -49 85 -19 41
-113 145 -180 200 -119 96 -230 154 -410 212 -104 34 -117 36 -250 36 -78 0
-161 -5 -186 -12 -45 -12 -56 -16 -165 -66 -90 -40 -233 -141 -293 -205 -48
-52 -111 -144 -130 -191 -13 -30 -27 -63 -32 -74 -12 -30 -28 -103 -35 -160
-11 -100 41 -308 102 -407 13 -21 23 -40 23 -43 0 -16 86 -119 141 -168 62
-56 196 -131 289 -161 185 -59 396 8 556 176 66 69 108 138 140 229 23 64 26
85 21 160 -4 75 -9 95 -42 158 -58 111 -144 174 -279 205 -170 40 -299 6 -402
-106 -57 -61 -67 -83 -67 -143 0 -92 83 -185 164 -185 23 0 79 51 79 73 0 8
-7 32 -16 53 -17 40 -14 95 7 120 19 23 78 17 124 -13 78 -49 106 -164 69
-289 -12 -43 -29 -69 -77 -118 l-62 -63 -93 -18 c-69 -13 -100 -14 -120 -7
-15 6 -43 14 -62 18 -73 14 -179 112 -224 208 -43 90 -56 144 -57 236 -2 192
75 341 226 434 39 24 91 51 116 59 182 62 441 42 614 -46 107 -54 238 -166
251 -214 3 -13 9 -23 13 -23 11 0 78 -150 91 -205 22 -94 24 -188 5 -311 -10
-66 -25 -128 -32 -139 -7 -11 -13 -25 -13 -33 0 -7 -16 -34 -35 -59 -19 -25
-35 -52 -35 -59 0 -16 -122 -134 -186 -180 -63 -46 -130 -80 -174 -89 -19 -4
-42 -13 -50 -19 -39 -32 -192 -72 -310 -82 -184 -14 -358 36 -514 148 -111 80
-326 316 -326 359 0 5 -4 17 -10 27 -23 41 -63 150 -71 196 -6 28 -14 71 -19
96 -38 184 -38 192 12 450 28 146 107 279 253 422 100 98 119 113 220 162 167
82 330 132 490 150 60 6 82 6 220 -9z m-1361 -451 c36 -5 50 -12 58 -30 14
-30 3 -71 -23 -84 -26 -14 -111 -36 -164 -43 -22 -3 -62 -10 -90 -15 -27 -6
-81 -16 -120 -23 -175 -29 -478 -140 -613 -225 -54 -33 -129 -91 -247 -193
-11 -9 -53 -53 -94 -97 -136 -146 -267 -375 -307 -534 -28 -112 -26 -344 4
-461 53 -204 110 -317 216 -423 94 -96 135 -126 247 -184 95 -49 126 -60 254
-89 132 -29 309 -1 423 69 51 30 182 131 182 139 0 4 19 29 43 55 24 27 47 56
50 64 4 8 17 30 28 49 32 54 76 171 88 237 8 43 8 88 0 164 -13 124 -39 213
-81 272 -45 65 -149 160 -209 190 -77 39 -221 78 -290 78 -96 0 -247 -49 -303
-98 -51 -46 -107 -133 -122 -194 -61 -238 124 -530 336 -530 60 0 122 24 150
59 22 27 50 91 50 114 0 44 -51 99 -91 99 -5 0 -31 -22 -56 -50 -41 -45 -50
-50 -88 -50 -56 0 -75 22 -82 98 -5 50 -2 68 18 107 48 95 127 135 269 135 85
0 103 -3 146 -26 63 -33 89 -57 129 -120 49 -75 61 -151 41 -259 -17 -91 -40
-144 -92 -210 -86 -108 -138 -147 -249 -185 -45 -16 -84 -20 -176 -20 -105 0
-127 3 -186 26 -170 67 -319 238 -386 442 -30 92 -32 104 -32 257 0 186 12
239 78 344 62 99 85 127 160 187 87 70 205 129 309 156 145 36 339 17 473 -48
28 -13 55 -24 60 -24 12 -1 131 -87 221 -160 81 -66 187 -188 221 -254 55
-109 75 -193 81 -337 5 -150 -4 -212 -58 -389 -61 -202 -159 -334 -370 -503
-71 -57 -90 -69 -135 -90 -86 -40 -159 -67 -239 -87 -78 -19 -109 -22 -230
-18 -136 5 -177 11 -296 46 -167 48 -330 167 -541 393 -40 42 -85 116 -124
204 -20 44 -42 94 -49 110 -33 72 -48 129 -76 282 -23 128 -25 239 -6 331 8
37 19 99 26 137 15 83 62 228 98 305 53 109 166 272 252 363 191 202 462 373
705 444 120 36 151 43 186 43 18 0 58 4 88 10 221 39 441 56 535 44z m1230
-1794 c76 -17 156 -40 177 -50 21 -11 44 -20 51 -20 41 0 258 -158 333 -242
106 -120 180 -279 220 -480 16 -78 16 -97 -1 -273 -19 -199 -97 -445 -164
-517 -11 -12 -20 -25 -20 -30 0 -16 -107 -155 -160 -208 -121 -122 -271 -223
-410 -277 -203 -79 -409 -120 -555 -108 -49 4 -117 9 -150 11 -215 16 -484
116 -721 269 -92 60 -100 66 -209 172 -86 84 -113 116 -215 255 -36 49 -86
117 -112 151 -26 34 -66 95 -89 135 -37 66 -40 76 -29 97 15 27 60 41 87 27
27 -15 90 -85 98 -110 3 -13 18 -30 31 -39 14 -9 31 -28 39 -42 18 -33 118
-136 220 -226 114 -101 125 -112 125 -130 0 -9 9 -15 22 -15 11 0 37 -12 57
-28 48 -36 59 -43 181 -103 58 -29 113 -56 123 -61 21 -10 141 -46 267 -79
119 -31 446 -40 536 -15 160 46 305 122 449 238 74 59 66 52 123 120 99 120
122 162 166 292 67 200 54 439 -33 629 -30 64 -89 161 -112 182 -68 63 -134
115 -147 115 -5 0 -15 6 -21 14 -16 19 -206 84 -266 91 -128 14 -272 4 -346
-25 -90 -36 -175 -85 -236 -137 -33 -29 -65 -53 -70 -53 -13 0 -88 -128 -114
-195 -19 -50 -23 -79 -23 -175 -1 -129 21 -216 75 -301 16 -25 29 -51 29 -58
0 -12 76 -86 143 -139 42 -33 115 -58 193 -66 151 -14 312 93 401 269 43 84
46 95 45 165 -1 93 -26 156 -82 209 -53 49 -106 66 -162 50 -56 -15 -108 -67
-108 -108 0 -45 38 -81 85 -81 81 0 112 -86 53 -147 -31 -32 -34 -33 -114 -33
-71 0 -86 3 -120 26 -92 61 -126 110 -149 209 -15 63 -15 75 0 140 39 178 221
290 431 265 170 -20 298 -94 385 -224 65 -96 79 -149 79 -289 0 -103 -3 -125
-29 -194 -62 -169 -135 -270 -274 -376 -128 -99 -265 -147 -412 -147 -74 0
-230 24 -249 38 -6 5 -27 15 -46 22 -40 16 -192 116 -230 151 -47 44 -137 193
-150 250 -7 30 -20 70 -29 89 -25 57 -21 342 7 440 11 41 24 98 27 125 17 138
160 327 323 427 96 59 236 118 285 119 18 0 59 9 92 19 98 29 234 26 399 -10z"/>
</g>
</svg>
